<?xml version="1.0" standalone="no"?>
<!DOCTYPE svg PUBLIC "-//W3C//DTD SVG 20010904//EN"
 "http://www.w3.org/TR/2001/REC-SVG-20010904/DTD/svg10.dtd">
<svg version="1.0" xmlns="http://www.w3.org/2000/svg"
 width="100.000000pt" height="100.000000pt" viewBox="0 0 100.000000 100.000000"
 preserveAspectRatio="xMidYMid meet">

<g transform="translate(0.000000,100.000000) scale(0.100000,-0.100000)"
fill="#000000" stroke="none">
<path d="M347 954 c-4 -4 -7 -46 -7 -93 0 -85 0 -86 -30 -103 -18 -10 -39 -36
-50 -60 -17 -38 -20 -67 -20 -261 0 -152 4 -223 12 -237 9 -15 9 -24 -1 -42
-7 -14 -11 -44 -9 -69 l3 -44 255 0 255 0 3 44 c2 25 -2 55 -9 69 -10 18 -10
27 -1 42 8 14 12 85 12 237 0 244 -9 284 -69 319 -30 18 -30 19 -33 108 l-3
91 -151 3 c-82 1 -153 -1 -157 -4z m273 -104 l0 -70 -50 0 c-48 0 -50 1 -50
29 0 21 6 30 21 34 41 11 14 32 -41 32 -55 0 -82 -21 -41 -32 15 -4 21 -13 21
-34 0 -28 -2 -29 -50 -29 l-50 0 0 70 0 70 120 0 120 0 0 -70z m52 -130 c45
-35 49 -60 46 -290 l-3 -215 -27 -13 c-16 -7 -28 -17 -28 -22 0 -5 12 -15 28
-22 20 -10 28 -22 30 -46 l3 -32 -221 0 -221 0 3 32 c2 24 10 36 31 46 15 7
27 17 27 22 0 5 -12 15 -27 22 l-28 13 -3 215 c-4 311 -4 310 218 310 131 0
150 -2 172 -20z"/>
<path d="M467 613 c-4 -3 -7 -14 -7 -24 0 -9 -17 -41 -37 -70 -31 -44 -38 -63
-38 -101 0 -40 5 -53 30 -78 78 -77 205 -25 205 84 0 56 -44 129 -102 173 -34
25 -41 27 -51 16z m84 -106 c23 -39 33 -88 24 -118 -7 -20 -9 -19 -21 16 -7
21 -19 45 -28 53 -13 13 -14 10 -9 -26 7 -50 -15 -66 -48 -36 -19 17 -20 17
-26 -5 -4 -17 -8 -19 -14 -9 -17 26 -9 61 27 119 32 51 39 57 56 48 10 -6 28
-25 39 -42z"/>
<path d="M385 190 c-12 -19 10 -32 51 -28 27 2 39 8 39 18 0 19 -79 27 -90 10z"/>
<path d="M525 190 c-12 -19 10 -32 51 -28 27 2 39 8 39 18 0 19 -79 27 -90 10z"/>
</g>
</svg>
