<?xml version="1.0" ?><svg height="32" id="svg2" version="1.1" viewBox="0 0 32 32.000001" width="32" xmlns="http://www.w3.org/2000/svg" xmlns:cc="http://creativecommons.org/ns#" xmlns:dc="http://purl.org/dc/elements/1.1/" xmlns:inkscape="http://www.inkscape.org/namespaces/inkscape" xmlns:rdf="http://www.w3.org/1999/02/22-rdf-syntax-ns#" xmlns:sodipodi="http://sodipodi.sourceforge.net/DTD/sodipodi-0.dtd" xmlns:svg="http://www.w3.org/2000/svg"><defs id="defs4"/><g id="layer1" transform="translate(0,-1020.3622)"><path d="m 12.88552,1033.3843 a 1,1 0 0 1 -1.34909,-0.072 1,1 0 0 1 -0.0467,-1.3502 1,1 0 0 1 1.34092,-0.1646" id="path13326" style="opacity:1;fill:none;fill-opacity:1;stroke:#000000;stroke-width:1;stroke-linecap:round;stroke-linejoin:round;stroke-miterlimit:4;stroke-dasharray:none;stroke-opacity:1"/><path d="m 17.75,1032.6122 c 0,0 -2.75,2.75 -5.5,2.75 -2.75,0 -5.5,-2.75 -5.5,-2.75 0,0 2.75,-2.75 5.5,-2.75 2.75,0 5.5,2.75 5.5,2.75 z" id="path13328" style="opacity:1;fill:none;fill-opacity:1;stroke:#000000;stroke-width:0.99999994;stroke-linecap:round;stroke-linejoin:round;stroke-miterlimit:4;stroke-dasharray:none;stroke-opacity:1"/><path d="m 1.25001,1032.6122 a 11,11 0 0 0 11,11 11,11 0 0 0 11,-11 11,11 0 0 0 -11,-11 11,11 0 0 0 -11,11 z" id="circle13330" style="opacity:1;fill:none;fill-opacity:1;stroke:#000000;stroke-width:0.99999994;stroke-linecap:round;stroke-linejoin:round;stroke-miterlimit:4;stroke-dasharray:none;stroke-opacity:1"/><path d="m 19.72825,1028.5734 a 8.5,8.5 0 0 1 -2.40909,10.8611 8.5,8.5 0 0 1 -11.09436,-0.8258 8.5,8.5 0 0 1 -0.7746,-11.098 8.5,8.5 0 0 1 10.87209,-2.359" id="path13332" style="opacity:1;fill:none;fill-opacity:1;stroke:#000000;stroke-width:0.99999994;stroke-linecap:round;stroke-linejoin:round;stroke-miterlimit:4;stroke-dasharray:none;stroke-opacity:1"/><path d="m 23.25004,1043.6122 -3.25006,-3.25" id="path13340" style="fill:none;fill-rule:evenodd;stroke:#000000;stroke-width:1px;stroke-linecap:butt;stroke-linejoin:miter;stroke-opacity:1"/><path d="m 21.74999,1044.8244 2.71225,-2.7122 6.28778,6.2878 -2.71225,2.7122 z" id="rect13342" style="opacity:1;fill:none;fill-opacity:1;stroke:#000000;stroke-width:0.99999994;stroke-linecap:round;stroke-linejoin:round;stroke-miterlimit:4;stroke-dasharray:none;stroke-opacity:1"/></g></svg>