<?xml version="1.0" standalone="no"?>
<!DOCTYPE svg PUBLIC "-//W3C//DTD SVG 20010904//EN"
 "http://www.w3.org/TR/2001/REC-SVG-20010904/DTD/svg10.dtd">
<svg version="1.0" xmlns="http://www.w3.org/2000/svg"
 width="971.000000pt" height="753.000000pt" viewBox="0 0 971.000000 753.000000"
 preserveAspectRatio="xMidYMid meet">

<g transform="translate(0.000000,753.000000) scale(0.100000,-0.100000)"
fill="#000000" stroke="none">
<path d="M2479 7387 c-43 -16 -102 -51 -143 -85 -16 -13 -68 -43 -116 -67 -68
-34 -97 -56 -141 -107 -137 -156 -199 -257 -283 -458 -19 -47 -49 -117 -65
-157 -17 -39 -31 -80 -31 -90 0 -10 -7 -31 -15 -47 -9 -17 -26 -59 -39 -95
-12 -36 -48 -136 -80 -221 -102 -273 -114 -312 -126 -415 -6 -55 -17 -131 -25
-170 -22 -109 -35 -276 -35 -448 0 -139 -4 -174 -29 -285 -16 -70 -32 -149
-36 -177 -4 -27 -13 -72 -21 -100 -47 -171 -57 -202 -69 -221 -7 -12 -17 -39
-20 -60 -4 -21 -16 -53 -25 -69 -10 -17 -28 -62 -39 -100 -11 -39 -36 -117
-56 -174 -19 -57 -35 -110 -35 -117 0 -14 -53 -54 -147 -111 -35 -20 -63 -41
-63 -45 0 -14 40 -8 77 12 21 11 48 20 60 20 18 0 23 6 23 25 0 14 5 25 10 25
26 0 -5 -92 -55 -165 -29 -42 -52 -63 -83 -76 -24 -11 -48 -19 -54 -19 -21 0
-152 -72 -195 -107 -24 -20 -54 -55 -65 -77 -12 -23 -51 -79 -87 -124 -94
-119 -111 -144 -111 -164 0 -27 13 -22 34 12 9 17 43 61 74 98 68 80 92 114
120 167 24 47 67 83 150 125 58 29 136 60 153 60 19 0 8 -69 -26 -165 -20 -55
-42 -138 -50 -185 -9 -47 -24 -107 -34 -135 -11 -27 -22 -77 -25 -110 -3 -33
-14 -96 -25 -140 -10 -44 -24 -134 -30 -200 -7 -66 -23 -156 -36 -200 -14 -44
-35 -116 -49 -160 -46 -152 -50 -191 -51 -415 0 -170 4 -233 18 -300 21 -99
37 -133 130 -269 91 -134 197 -221 301 -248 95 -24 315 -24 366 1 142 67 283
239 326 394 28 102 34 135 50 282 8 80 19 181 24 225 5 44 9 121 9 170 1 77 5
98 30 150 24 53 79 116 99 115 16 -1 82 -72 82 -88 0 -9 -13 -45 -30 -80 -66
-140 -99 -287 -107 -477 -5 -132 -1 -185 26 -316 15 -69 84 -172 140 -208 81
-52 98 -47 212 66 54 54 107 105 116 113 32 26 217 165 244 182 36 23 169 155
204 203 84 114 169 204 234 247 21 15 50 18 161 18 158 0 244 19 333 71 32 19
68 40 80 46 12 7 35 13 50 13 38 0 174 57 198 83 19 21 19 21 21 -19 1 -21 2
-66 3 -99 1 -43 9 -77 29 -120 27 -57 28 -65 23 -175 -3 -79 -10 -128 -22
-155 -10 -22 -28 -80 -40 -130 -13 -49 -34 -117 -46 -150 -18 -49 -23 -86 -27
-203 -7 -218 3 -300 41 -360 108 -170 120 -181 219 -211 161 -48 242 -62 366
-61 121 0 250 22 307 52 45 24 141 117 193 188 31 41 66 89 78 105 26 36 130
143 195 202 26 23 57 63 69 88 22 46 22 50 17 388 -5 325 -6 347 -30 442 -30
115 -57 290 -57 362 0 53 -1 52 100 178 22 28 45 66 51 85 7 19 31 62 55 96
45 64 76 84 192 125 59 20 73 31 53 43 -9 6 -136 -36 -182 -60 -39 -20 -41
-19 -68 31 -13 24 -35 52 -50 61 -14 9 -51 38 -81 64 -30 26 -68 50 -84 54
-28 7 -28 8 -22 57 7 52 101 307 186 504 26 61 53 128 60 150 7 22 37 87 66
145 30 58 64 134 77 170 14 36 60 148 104 250 45 102 95 223 113 270 18 47 43
110 56 140 12 30 27 73 32 95 6 22 22 74 37 115 31 85 73 241 87 315 5 28 13
133 17 235 14 299 31 422 71 513 37 85 62 207 55 272 -9 78 -40 197 -66 246
-36 72 -120 187 -168 232 -66 61 -100 69 -285 64 -211 -5 -426 -37 -548 -81
-127 -46 -357 -162 -455 -229 -43 -30 -109 -71 -148 -91 -85 -47 -188 -142
-179 -168 6 -19 -10 -24 -170 -59 -107 -24 -134 -20 -224 28 -87 47 -103 62
-153 144 -23 38 -60 88 -83 110 -53 54 -178 141 -247 174 -50 23 -61 25 -144
19 -58 -4 -120 -17 -175 -35 -47 -16 -116 -38 -155 -49 -97 -26 -216 -68 -231
-81 -7 -6 -32 -18 -56 -27 -24 -10 -75 -34 -115 -55 -102 -55 -135 -100 -162
-225 -26 -119 -55 -209 -91 -282 -61 -123 -64 -152 -79 -700 l-7 -285 -32 -65
c-41 -86 -45 -90 -137 -146 -44 -26 -105 -66 -135 -88 -30 -23 -65 -45 -77
-51 -64 -30 -225 -225 -252 -306 -6 -19 -34 -74 -62 -124 -28 -49 -59 -109
-69 -132 -18 -40 -23 -43 -100 -67 -45 -14 -95 -26 -113 -26 -18 0 -52 -9 -76
-20 -24 -11 -44 -20 -46 -20 -6 0 33 137 47 165 8 17 23 59 32 95 10 36 28 88
41 115 48 105 131 382 145 489 6 39 15 89 21 111 31 116 38 179 39 342 0 163
4 213 32 386 6 39 14 104 18 142 13 125 28 193 60 282 100 273 174 473 190
513 11 25 24 63 31 85 6 22 33 90 59 150 26 61 51 121 55 135 16 52 78 162
127 227 137 181 158 203 238 243 42 21 114 64 160 94 46 31 95 59 109 62 15 3
38 10 52 16 31 11 64 6 219 -32 202 -51 245 -60 283 -60 49 0 128 -22 222 -61
94 -39 150 -91 242 -226 83 -121 218 -386 232 -454 6 -30 15 -90 21 -134 13
-108 26 -166 49 -222 10 -27 22 -56 25 -65 3 -10 10 -18 16 -18 15 0 12 47 -5
80 -24 47 -45 138 -56 240 -5 52 -16 118 -24 148 -25 84 -151 332 -205 402
-15 19 -49 67 -75 105 -26 39 -62 83 -79 98 -71 63 -243 129 -371 142 -38 4
-133 23 -210 43 -157 40 -285 51 -346 29z m3309 -768 c67 -17 95 -46 209 -214
55 -81 92 -204 95 -315 1 -74 -3 -97 -31 -175 -67 -185 -78 -250 -92 -560 -9
-214 -15 -260 -52 -395 -30 -112 -118 -380 -141 -430 -8 -19 -32 -78 -52 -130
-19 -52 -46 -117 -58 -145 -13 -27 -32 -72 -44 -100 -11 -27 -37 -87 -57 -132
-20 -46 -45 -108 -55 -138 -11 -31 -36 -86 -56 -123 -35 -65 -55 -113 -182
-427 -112 -279 -124 -310 -133 -362 -5 -29 -13 -79 -19 -110 -12 -69 -12 -296
0 -408 9 -90 33 -245 55 -350 8 -38 17 -94 21 -123 3 -29 17 -97 30 -150 23
-93 24 -111 24 -448 l0 -351 -28 -39 c-16 -21 -48 -54 -73 -73 -52 -41 -140
-141 -235 -267 -72 -96 -147 -170 -200 -197 -48 -25 -187 -47 -294 -47 -151 0
-385 55 -438 104 -13 11 -49 58 -80 104 -55 82 -55 83 -63 180 -17 214 -5 374
36 453 9 16 20 55 26 87 6 31 22 86 37 122 25 62 26 74 27 240 0 164 -1 178
-23 218 -13 25 -25 69 -29 108 l-6 65 34 -3 c32 -3 35 -7 56 -63 12 -33 37
-103 57 -155 20 -52 43 -128 52 -168 23 -109 113 -354 135 -367 21 -14 22 7 1
58 -54 133 -83 219 -101 297 -19 81 -40 144 -109 327 l-31 82 41 12 c44 11
169 73 224 109 l32 21 45 -88 c24 -49 61 -126 81 -173 21 -47 57 -125 81 -175
52 -109 88 -187 109 -237 19 -47 41 -51 32 -7 -6 31 -36 98 -106 239 -20 41
-41 86 -45 100 -4 14 -43 99 -86 189 -44 90 -79 165 -79 167 0 2 23 15 52 30
46 23 106 61 176 109 29 21 96 112 153 208 l45 78 51 -58 c79 -91 143 -229
143 -310 0 -42 9 -63 27 -63 12 0 13 11 8 58 -14 120 -79 259 -162 344 l-46
46 21 64 c11 34 28 83 37 108 15 40 16 82 12 355 -5 314 -10 364 -53 509 -7
27 -14 72 -14 99 0 54 -14 147 -36 244 -28 123 -15 249 34 320 10 15 31 46 46
68 14 22 64 89 110 149 46 59 110 155 141 212 31 57 60 104 63 104 17 0 62
113 75 190 33 187 37 222 37 345 0 120 -12 203 -50 345 -5 19 -41 76 -79 127
-39 51 -81 114 -95 141 -14 27 -43 64 -66 82 l-40 32 -177 -4 -178 -4 -124
-42 c-68 -23 -126 -41 -127 -39 -10 10 188 157 211 157 4 0 47 26 94 59 47 32
146 88 218 125 217 108 294 133 508 161 190 25 372 31 443 14z m-2313 -213
c118 -79 178 -136 225 -216 21 -36 53 -79 72 -96 49 -47 183 -114 226 -114 57
0 261 50 316 77 27 14 103 43 168 64 117 39 120 39 274 39 145 0 157 -1 185
-22 17 -13 44 -49 60 -80 16 -31 41 -72 56 -90 105 -125 114 -142 142 -293 22
-118 27 -267 12 -369 -5 -34 -15 -99 -22 -146 -14 -98 -40 -174 -74 -210 -12
-14 -42 -61 -65 -105 -49 -91 -95 -160 -175 -260 -74 -94 -143 -198 -160 -243
-23 -63 -26 -133 -9 -223 36 -193 43 -237 43 -295 1 -34 8 -81 17 -105 36
-101 44 -196 44 -516 l0 -312 -27 -73 c-14 -40 -29 -76 -33 -81 -3 -4 -38 26
-77 67 -142 147 -328 303 -413 346 -24 12 -96 38 -160 57 -101 31 -132 36
-261 40 l-146 6 -21 73 c-17 58 -29 78 -55 99 -63 48 -192 69 -314 51 -62 -9
-84 3 -133 70 -24 34 -49 53 -94 74 -88 41 -140 45 -195 17 -78 -39 -85 -58
-90 -220 -4 -171 4 -204 59 -242 54 -38 110 -101 110 -124 0 -11 5 -23 10 -26
14 -9 -61 -149 -103 -193 -18 -19 -68 -59 -112 -90 -96 -67 -179 -135 -261
-215 -52 -50 -71 -61 -120 -73 -33 -7 -75 -14 -94 -14 -58 0 -309 88 -370 130
-14 9 -64 36 -113 59 -54 27 -95 54 -108 73 -20 28 -119 244 -119 259 0 4 26
11 58 14 81 10 356 70 427 93 33 11 98 34 145 50 86 31 261 56 494 71 72 4
101 10 104 20 6 18 -179 10 -398 -18 -123 -16 -175 -27 -250 -56 -167 -64
-579 -153 -599 -128 -8 9 -31 63 -79 186 l-31 78 46 21 c26 11 80 24 120 29
41 4 99 13 130 19 31 5 80 10 109 10 29 0 88 7 131 15 60 12 160 15 441 15
287 0 363 3 360 13 -7 20 -709 22 -807 2 -40 -8 -96 -15 -125 -15 -67 0 -297
-35 -361 -54 -27 -9 -53 -12 -57 -8 -12 12 -30 173 -31 282 -2 126 12 177 51
187 42 10 272 9 437 -4 160 -12 202 -22 455 -108 74 -26 160 -55 190 -64 112
-37 256 -54 248 -29 -3 7 -51 20 -114 30 -60 9 -143 31 -184 47 -41 16 -106
39 -145 51 -38 12 -95 30 -125 41 -159 56 -453 89 -666 75 -120 -8 -116 -16
-49 104 23 41 61 113 83 160 23 47 59 108 82 135 22 28 54 67 72 89 17 21 52
51 77 67 25 16 80 51 121 79 41 28 104 70 140 93 67 44 107 97 130 174 7 21
16 160 21 308 5 149 13 340 17 425 10 164 5 145 86 338 27 62 76 241 76 275 0
11 16 43 35 71 28 41 50 58 108 87 131 65 231 107 332 140 55 17 125 40 155
51 118 41 145 46 250 45 l105 -2 90 -59z m-2099 -2658 c-24 -78 -15 -261 20
-441 6 -27 2 -29 -101 -78 -59 -27 -124 -53 -144 -57 -20 -5 -36 -12 -36 -17
0 -26 61 -12 176 40 68 30 125 55 126 55 0 0 13 -33 28 -72 15 -40 35 -94 46
-120 10 -26 19 -53 19 -61 0 -7 -35 -28 -82 -47 -46 -18 -135 -60 -198 -92
-63 -32 -139 -66 -170 -75 -71 -20 -170 -72 -170 -89 0 -20 16 -17 63 10 23
13 80 38 127 54 47 16 133 54 192 85 102 52 232 107 254 107 20 0 79 -139 65
-153 -4 -4 14 -62 40 -129 27 -66 52 -137 55 -156 14 -72 73 -169 142 -232
l66 -61 -46 -47 c-30 -30 -54 -70 -71 -112 -22 -58 -25 -84 -30 -250 -8 -268
-49 -530 -98 -625 -12 -22 -30 -57 -41 -78 -23 -46 -125 -150 -192 -196 -39
-27 -63 -35 -123 -42 -84 -9 -248 3 -306 23 -49 17 -190 134 -213 177 -18 32
-38 61 -94 133 -12 15 -33 60 -47 100 -25 70 -26 84 -30 333 -5 290 -9 262 75
552 38 129 52 196 57 270 3 54 17 144 31 201 13 57 24 119 24 138 0 19 11 67
25 106 14 39 25 82 25 95 0 13 9 32 20 43 20 20 26 42 50 175 22 129 35 170
56 187 14 12 20 25 17 37 -3 11 4 33 15 48 10 15 20 35 20 43 1 8 11 44 23 79
22 62 24 64 83 92 34 16 77 29 96 30 19 0 60 9 90 19 71 24 74 24 66 -2z
m1687 -157 c27 -13 67 -46 93 -76 70 -83 84 -89 153 -72 97 25 238 1 292 -50
77 -71 56 -251 -33 -296 -23 -11 -87 -23 -175 -32 -76 -8 -163 -19 -193 -25
-198 -38 -210 -37 -210 7 0 35 -30 85 -65 109 -110 77 -123 111 -109 281 12
130 26 160 90 178 47 13 95 6 157 -24z m1002 -405 c143 -44 170 -55 232 -95
79 -51 218 -172 334 -291 l97 -99 -24 -50 c-14 -27 -29 -53 -34 -56 -6 -4 -17
-21 -24 -38 -34 -78 -149 -178 -282 -245 l-61 -31 -111 147 c-60 81 -160 208
-221 282 -61 74 -134 164 -164 200 -35 43 -76 79 -122 107 -39 23 -74 44 -79
46 -5 1 2 15 15 29 13 14 32 49 42 78 l19 52 146 -4 c123 -4 162 -9 237 -32z
m-451 -165 c72 -30 139 -87 203 -171 38 -48 127 -160 198 -248 72 -87 158
-198 193 -246 l63 -87 -23 -20 c-34 -29 -189 -106 -229 -114 l-35 -6 -56 125
c-57 127 -71 146 -269 381 -28 33 -74 96 -103 140 -29 44 -85 118 -125 165
l-72 85 67 8 c37 4 81 11 98 16 20 5 36 4 46 -4 8 -6 28 -17 44 -24z m-263
-38 c66 -68 139 -159 178 -223 35 -55 85 -120 151 -196 128 -147 160 -195 215
-312 31 -68 54 -126 50 -130 -4 -4 -129 -7 -278 -7 -265 0 -273 1 -312 23
-120 68 -196 147 -211 217 -3 16 -12 41 -20 55 -38 73 -76 219 -85 324 -5 61
-11 140 -15 176 l-6 66 78 13 c44 8 106 19 139 26 33 7 62 13 65 14 3 1 26
-20 51 -46z m-352 -175 c14 -170 36 -266 94 -408 6 -14 22 -59 36 -100 24 -70
30 -77 73 -100 26 -14 58 -35 70 -47 13 -12 48 -34 78 -50 l55 -28 215 3 215
2 -49 -26 c-26 -14 -77 -32 -113 -39 -39 -8 -91 -29 -132 -55 -99 -59 -182
-80 -318 -80 -62 0 -113 3 -113 7 0 3 24 30 54 60 56 54 116 133 116 152 0 21
-20 10 -47 -26 -37 -50 -151 -163 -246 -243 -42 -36 -107 -103 -144 -150 -106
-133 -216 -238 -368 -350 -77 -57 -174 -138 -215 -180 -41 -41 -92 -88 -112
-104 -34 -25 -41 -27 -71 -17 -64 22 -138 125 -162 228 -22 95 -29 268 -15
384 16 141 45 243 117 414 29 68 65 198 79 280 5 33 27 89 39 103 2 2 29 -4
61 -14 42 -12 75 -15 121 -10 110 11 120 16 191 85 96 92 182 161 293 235 55
37 118 105 151 164 16 28 31 52 33 52 1 0 8 -64 14 -142z m2287 -30 c44 -36
81 -77 98 -107 l26 -49 -24 -29 c-13 -15 -42 -64 -65 -108 -45 -87 -131 -198
-144 -186 -11 11 -37 250 -37 342 0 42 3 110 6 152 l7 76 31 -16 c17 -9 63
-42 102 -75z m-3579 -134 c20 -14 67 -39 103 -56 36 -17 72 -36 80 -43 18 -15
181 -85 198 -85 16 0 15 -31 -3 -56 -8 -12 -19 -50 -24 -85 -6 -35 -18 -88
-27 -118 l-16 -54 -56 55 c-31 30 -82 75 -113 101 -44 36 -66 65 -98 129 -23
44 -41 93 -41 107 0 14 -11 50 -25 79 -13 28 -22 52 -20 52 2 0 21 -11 42 -26z"/>
<path d="M2555 5429 c-4 -6 2 -20 12 -32 22 -25 51 -69 73 -112 37 -72 214
-164 371 -192 74 -14 111 -15 202 -7 62 6 126 17 142 25 43 20 44 50 2 80 -19
13 -66 49 -103 79 -105 84 -142 106 -237 139 -85 30 -95 31 -253 31 -121 0
-164 -3 -164 -12 0 -9 -3 -9 -12 0 -15 15 -25 15 -33 1z m280 -59 c-8 -22 -15
-72 -17 -110 -1 -39 -5 -70 -9 -70 -4 0 -34 18 -67 40 -48 32 -68 54 -96 106
-20 35 -36 67 -36 69 0 3 54 5 120 5 l119 0 -14 -40z m128 26 c18 -8 54 -21
80 -30 69 -22 302 -192 302 -219 0 -6 -12 -14 -26 -17 -43 -12 -232 -21 -266
-13 l-33 8 54 44 c60 49 93 96 76 106 -6 4 -34 -18 -63 -48 -88 -93 -134 -104
-206 -50 l-33 26 4 76 c8 126 33 152 111 117z"/>
<path d="M4135 5143 c-57 -5 -174 -34 -181 -44 -3 -5 -14 -9 -25 -9 -12 0 -19
-4 -17 -8 3 -9 171 -151 228 -193 119 -89 209 -100 420 -54 165 37 190 44 190
58 -1 18 -116 88 -275 166 -186 92 -203 96 -340 84z m105 -71 c0 -21 -5 -64
-10 -95 -9 -47 -8 -62 5 -87 l16 -31 -23 12 c-69 37 -263 198 -246 204 7 3 31
11 53 19 22 8 77 15 123 15 l82 1 0 -38z m124 7 c123 -54 118 -51 111 -77 -9
-36 -52 -100 -80 -118 -18 -12 -38 -15 -67 -11 -66 9 -71 20 -63 136 4 60 11
101 18 101 6 0 42 -14 81 -31z m184 -88 c63 -32 144 -89 135 -94 -5 -3 -47
-13 -93 -22 -47 -9 -98 -20 -115 -25 -62 -17 -85 -20 -85 -11 0 5 9 13 20 16
26 8 90 103 90 132 0 28 1 28 48 4z"/>
<path d="M2978 3411 c-7 -11 -18 -21 -25 -21 -20 0 -15 -48 7 -70 24 -24 62
-40 95 -40 25 0 55 37 55 69 0 32 -41 71 -82 78 -30 4 -39 2 -50 -16z m65 -20
c52 -20 41 -87 -12 -75 -31 8 -61 32 -61 50 0 12 26 33 42 34 4 0 18 -4 31 -9z"/>
<path d="M3334 3285 c-17 -42 31 -108 74 -103 22 2 28 9 30 33 3 34 -19 72
-36 61 -8 -5 -8 -13 0 -31 6 -14 8 -28 4 -33 -12 -11 -46 37 -46 64 0 27 -17
32 -26 9z"/>
<path d="M2798 2433 c-6 -76 -20 -110 -102 -234 -121 -183 -175 -257 -283
-387 -125 -149 -182 -249 -137 -240 9 2 21 19 28 39 12 35 86 132 177 233 26
28 68 83 95 121 149 217 223 335 238 378 20 60 22 157 2 157 -9 0 -15 -19 -18
-67z"/>
<path d="M9311 6633 c-18 -18 -41 -33 -52 -33 -10 0 -19 -4 -19 -10 0 -5 5
-10 12 -10 6 0 8 -3 5 -6 -4 -4 -14 -1 -23 7 -57 47 -271 54 -353 11 -23 -12
-51 -22 -62 -22 -11 0 -46 -25 -78 -55 -32 -30 -63 -55 -70 -55 -6 0 -14 -7
-17 -15 -4 -8 -12 -15 -20 -15 -8 0 -14 -11 -15 -27 0 -25 -1 -26 -10 -8 -7
15 -8 12 -3 -12 3 -18 3 -42 -1 -53 -6 -20 -13 -21 -106 -19 -55 1 -103 -1
-106 -5 -4 -3 -13 -6 -22 -5 -12 0 -11 3 4 10 17 8 16 8 -5 3 -14 -4 -38 -7
-53 -8 -24 -1 -28 -5 -24 -23 2 -13 -1 -23 -7 -23 -6 0 2 -7 18 -15 15 -8 38
-15 51 -15 32 0 52 -27 37 -48 -6 -10 -21 -38 -34 -63 -15 -33 -26 -45 -37
-41 -10 4 -12 1 -6 -8 5 -9 4 -11 -3 -6 -7 4 -17 17 -22 29 -11 21 -11 21 4 3
9 -11 16 -15 16 -10 0 6 -11 21 -25 34 -27 25 -32 59 -13 78 9 9 8 18 -2 37
-11 21 -11 30 -2 45 6 11 8 21 3 24 -11 7 -7 53 8 90 7 19 9 50 5 88 -6 57
-16 73 -28 43 -6 -17 -34 -19 -56 -5 -11 7 -6 8 18 4 19 -4 32 -2 32 4 0 24
-13 42 -31 42 -10 0 -19 6 -19 14 0 18 -28 25 -132 33 -78 5 -90 4 -125 -17
-21 -12 -42 -28 -46 -36 -4 -8 -16 -14 -26 -14 -14 0 -21 -13 -30 -60 -7 -33
-16 -60 -20 -60 -12 0 0 -58 15 -71 8 -6 14 -17 14 -23 0 -6 -5 -4 -11 4 -8
11 -9 9 -3 -10 14 -51 23 -68 47 -87 24 -19 24 -20 6 -31 -10 -7 -25 -12 -32
-12 -8 0 -22 -9 -32 -20 -10 -11 -22 -17 -28 -13 -5 3 -7 1 -3 -5 3 -6 2 -13
-3 -17 -6 -3 -23 -25 -39 -49 -38 -56 -48 -114 -29 -158 8 -18 17 -40 20 -48
3 -12 17 -14 61 -12 56 4 80 22 29 22 -16 0 -33 4 -40 8 -7 4 7 7 31 7 37 0
43 -3 42 -20 -1 -17 -9 -20 -53 -23 -55 -3 -64 -11 -38 -32 8 -7 13 -16 10
-20 -3 -4 11 -11 30 -14 19 -4 35 -11 35 -15 0 -14 85 -31 157 -31 60 0 78 5
148 40 44 22 81 40 82 40 2 0 3 -8 3 -17 1 -17 1 -17 11 0 5 9 8 21 4 26 -3 5
0 13 6 17 7 4 9 3 6 -3 -6 -10 21 -28 58 -37 11 -3 2 -4 -21 -2 -30 3 -41 0
-41 -10 0 -8 4 -14 9 -14 4 0 8 -5 8 -11 0 -7 -11 -9 -26 -6 -14 2 -22 1 -17
-3 4 -4 33 -10 63 -13 30 -4 49 -3 42 2 -7 4 69 7 170 7 101 -1 173 0 161 2
-35 5 -27 22 10 23 30 2 30 2 5 6 -19 3 -30 12 -34 27 -4 18 -12 22 -34 21
-16 -1 -27 2 -24 6 3 5 -7 11 -22 15 -15 4 -39 13 -53 20 -14 8 -34 14 -43 14
-19 0 -98 66 -98 81 0 5 16 27 36 49 20 22 34 46 31 54 -3 8 1 22 9 33 14 17
14 17 4 -4 -8 -18 -8 -22 4 -17 7 3 19 25 26 50 11 37 20 49 51 65 21 10 41
19 44 19 3 0 5 -21 5 -46 0 -25 4 -43 9 -39 6 3 6 -6 1 -24 -4 -16 -6 -32 -3
-34 8 -9 11 -41 12 -135 1 -59 5 -91 11 -87 6 3 10 32 11 63 0 31 3 51 6 44 2
-6 8 -10 12 -8 4 3 5 -8 3 -25 -4 -24 -1 -28 12 -23 10 4 30 -7 56 -30 35 -31
80 -51 66 -28 -3 5 7 7 22 5 15 -2 77 -8 137 -13 l110 -9 -133 5 c-129 5 -133
5 -123 -14 5 -10 29 -24 53 -31 24 -7 45 -17 48 -22 3 -4 31 -9 62 -11 31 -2
54 -6 52 -10 -2 -4 -32 -5 -67 -3 l-62 3 64 -11 c48 -8 78 -7 115 2 28 6 67
15 86 20 19 4 34 12 33 17 -1 5 8 11 19 11 29 3 74 36 158 118 47 45 67 71 59
75 -9 6 -8 14 5 31 24 35 19 48 -7 17 -16 -21 -28 -26 -44 -22 -27 8 -29 19
-6 33 10 5 14 13 10 18 -5 4 -15 0 -22 -11 -8 -10 -20 -16 -28 -13 -10 4 -13
0 -11 -11 7 -27 -30 -76 -74 -97 -22 -11 -38 -23 -36 -26 2 -4 -5 -5 -16 -2
-11 3 -36 -4 -55 -16 -38 -22 -99 -28 -110 -11 -3 6 -17 10 -30 10 -26 0 -95
59 -95 82 0 8 -11 29 -24 47 -14 19 -29 58 -35 94 -11 66 -5 204 10 244 5 14
7 28 4 33 -3 5 0 12 6 16 8 4 9 3 5 -4 -4 -7 -3 -12 3 -12 6 0 16 10 22 23 7
12 26 40 43 62 18 24 23 34 11 25 -19 -14 -19 -14 -6 3 8 9 16 15 19 12 3 -3
12 1 21 9 21 19 120 26 114 9 -3 -9 4 -13 22 -13 29 0 105 -66 105 -91 0 -8
-5 -6 -12 6 -11 20 -28 35 -40 35 -3 0 7 -13 22 -30 15 -16 33 -30 39 -30 6 0
11 -5 11 -11 0 -8 6 -7 18 2 14 11 15 11 5 -1 -14 -15 -18 -54 -5 -46 5 3 6
-8 4 -24 -3 -22 0 -32 14 -37 11 -3 22 -11 26 -17 5 -7 8 -4 8 7 0 9 6 17 14
17 8 0 17 -8 19 -17 4 -16 5 -16 6 -1 0 9 11 19 24 21 19 4 19 4 2 6 -19 1
-20 8 -19 127 1 102 4 128 17 142 11 10 17 12 17 4 0 -7 7 -12 15 -12 8 0 15
5 15 10 0 9 -21 14 -47 11 -7 -1 -16 13 -21 31 l-8 33 -33 -32z m17 -17 c-7
-8 -16 -12 -21 -9 -11 7 2 23 19 23 12 0 12 -2 2 -14z m-208 -26 c0 -5 -22
-10 -50 -10 -27 0 -50 5 -50 10 0 6 23 10 50 10 28 0 50 -4 50 -10z m-1083
-27 c-20 -2 -52 -2 -70 0 -17 2 0 4 38 4 39 0 53 -2 32 -4z m930 1 c-3 -3 -12
-4 -19 -1 -8 3 -5 6 6 6 11 1 17 -2 13 -5z m216 -1 c-7 -2 -19 -2 -25 0 -7 3
-2 5 12 5 14 0 19 -2 13 -5z m137 3 c0 -2 -7 -7 -16 -10 -8 -3 -12 -2 -9 4 6
10 25 14 25 6z m-454 -18 c4 -7 3 -8 -5 -4 -6 4 -18 2 -26 -4 -9 -8 -15 -8
-15 -2 0 9 15 19 32 21 4 1 10 -4 14 -11z m-856 -8 c0 -6 -27 -10 -60 -10 -33
0 -60 4 -60 10 0 6 27 10 60 10 33 0 60 -4 60 -10z m110 -30 c27 -28 35 -55
31 -100 -3 -24 -35 -90 -45 -90 -12 0 -49 49 -63 84 -6 17 -12 50 -12 74 -1
35 3 44 22 52 33 13 35 13 67 -20z m43 -20 c8 -29 0 -24 -19 13 -14 27 -15 30
-2 19 9 -7 18 -22 21 -32z m750 33 c-7 -2 -19 -2 -25 0 -7 3 -2 5 12 5 14 0
19 -2 13 -5z m-988 -13 c-38 -7 -38 -7 18 -9 72 -1 76 -21 3 -21 -37 0 -56 4
-59 14 -8 20 2 26 42 25 l36 -2 -40 -7z m845 -20 c0 -5 -4 -10 -10 -10 -5 0
-10 5 -10 10 0 6 5 10 10 10 6 0 10 -4 10 -10z m540 0 c0 -5 8 -10 18 -10 9
-1 1 -8 -17 -16 -19 -8 -42 -13 -50 -11 -10 3 -6 6 9 7 21 2 20 4 -10 10 l-35
7 33 2 c17 0 32 6 32 11 0 6 5 10 10 10 6 0 10 -4 10 -10z m-406 -30 c-10 -16
-20 -27 -22 -25 -5 5 26 55 34 55 3 0 -3 -13 -12 -30z m-42 9 c-4 -4 -25 -9
-47 -12 -22 -3 -34 -3 -26 0 8 4 10 8 3 12 -6 4 9 6 33 6 24 0 41 -3 37 -6z
m-969 -6 c-7 -2 -19 -2 -25 0 -7 3 -2 5 12 5 14 0 19 -2 13 -5z m870 0 c-7 -2
-19 -2 -25 0 -7 3 -2 5 12 5 14 0 19 -2 13 -5z m-805 -10 c-46 -4 -63 -16 -35
-26 6 -2 3 -3 -8 -1 -11 2 -30 4 -42 4 -13 0 -23 4 -23 9 0 11 44 18 110 18
l45 -1 -47 -3z m209 -15 c-3 -8 -6 -5 -6 6 -1 11 2 17 5 13 3 -3 4 -12 1 -19z
m58 -18 c-19 -8 -18 -9 4 -9 13 -1 22 -4 18 -7 -3 -4 -18 -3 -34 0 -21 6 -24
9 -12 17 7 5 21 8 29 8 10 0 8 -3 -5 -9z m528 3 c-13 -2 -33 -2 -45 0 -13 2
-3 4 22 4 25 0 35 -2 23 -4z m-753 -13 c-13 -8 -12 -10 3 -10 9 0 17 -4 17 -9
0 -10 -50 -25 -58 -16 -3 3 2 5 11 5 26 0 20 20 -5 21 -22 1 -22 1 2 9 35 11
48 11 30 0z m155 -51 c-10 -21 -14 -25 -10 -9 4 14 9 36 13 50 4 16 7 19 9 9
2 -8 -3 -31 -12 -50z m656 44 c8 -9 9 -14 2 -10 -6 4 -13 1 -16 -5 -2 -8 -8
-9 -13 -4 -5 5 -3 11 5 14 11 4 11 6 0 13 -8 5 -9 9 -3 9 6 0 18 -8 25 -17z
m522 10 c-7 -2 -19 -2 -25 0 -7 3 -2 5 12 5 14 0 19 -2 13 -5z m-1440 -10 c-7
-2 -21 -2 -30 0 -10 3 -4 5 12 5 17 0 24 -2 18 -5z m860 0 c-13 -2 -35 -2 -50
0 -16 2 -5 4 22 4 28 0 40 -2 28 -4z m577 -13 c0 -5 -11 -10 -25 -10 -14 0
-25 5 -25 10 0 6 11 10 25 10 14 0 25 -4 25 -10z m-1402 -17 c-16 -2 -40 -2
-55 0 -16 2 -3 4 27 4 30 0 43 -2 28 -4z m292 3 c0 -2 -9 -6 -20 -9 -11 -3
-18 -1 -14 4 5 9 34 13 34 5z m570 -16 c-31 -7 -32 -7 -7 -9 30 -1 38 -21 8
-21 -11 0 -23 5 -26 10 -3 6 -25 11 -48 12 l-42 1 45 7 c25 4 59 7 75 7 29 0
28 0 -5 -7z m-867 -7 c-13 -2 -33 -2 -45 0 -13 2 -3 4 22 4 25 0 35 -2 23 -4z
m137 -16 c0 -8 -3 -8 -9 2 -6 9 -11 10 -15 2 -9 -13 -56 -15 -56 -2 0 10 58
20 73 13 4 -2 7 -9 7 -15z m160 4 c0 -14 -29 -21 -36 -9 -4 7 -3 8 4 4 7 -4
12 -2 12 3 0 6 5 11 10 11 6 0 10 -4 10 -9z m35 -28 c-1 -21 -3 -65 -4 -98
l-2 -60 -34 37 c-19 21 -35 46 -35 57 0 13 50 80 76 100 1 1 0 -16 -1 -36z
m415 27 c0 -5 -7 -10 -15 -10 -8 0 -15 5 -15 10 0 6 7 10 15 10 8 0 15 -4 15
-10z m617 -22 c-3 -8 -6 -5 -6 6 -1 11 2 17 5 13 3 -3 4 -12 1 -19z m-1328 8
c-2 -2 -22 -6 -44 -9 -28 -5 -34 -4 -20 3 19 8 73 14 64 6z m779 -3 c-10 -2
-28 -2 -40 0 -13 2 -5 4 17 4 22 1 32 -1 23 -4z m-869 -43 c0 -10 -3 -8 -9 5
-12 27 -12 43 0 25 5 -8 9 -22 9 -30z m861 22 c-44 -2 -77 -8 -82 -15 -4 -7
-7 -4 -6 8 2 19 7 20 82 15 l81 -5 -75 -3z m-724 -7 c4 -8 10 -15 16 -15 5 0
16 7 24 15 9 8 21 15 27 15 20 0 42 -18 33 -27 -5 -4 -11 -2 -13 5 -5 14 -33
17 -33 3 0 -18 -43 -24 -54 -8 -7 8 -20 17 -31 20 -18 4 -17 5 3 6 12 0 25 -6
28 -14z m151 9 c-3 -3 -12 -4 -19 -1 -8 3 -5 6 6 6 11 1 17 -2 13 -5z m-204
-18 c8 -19 -2 -26 -32 -25 -25 1 -25 2 4 9 l30 8 -32 1 c-18 0 -33 6 -33 11 0
15 57 12 63 -4z m620 -13 c-13 -2 -33 -2 -45 0 -13 2 -3 4 22 4 25 0 35 -2 23
-4z m222 -2 c-6 -5 -28 -11 -49 -13 -22 -2 -41 -9 -42 -16 -1 -7 0 -8 3 -2 6
13 53 13 53 1 0 -12 -43 -17 -87 -12 -40 4 -44 21 -5 21 15 0 32 4 38 9 5 5
27 11 49 14 22 2 42 4 45 5 2 1 0 -2 -5 -7z m-680 -11 c-3 -5 -28 -10 -56 -10
-27 0 -49 -4 -49 -10 0 -5 -7 -10 -15 -10 -8 0 -15 4 -15 10 0 9 32 16 100 23
19 2 36 5 38 5 2 1 0 -2 -3 -8z m222 4 c-3 -3 -12 -4 -19 -1 -8 3 -5 6 6 6 11
1 17 -2 13 -5z m106 -1 c-13 -2 -33 -2 -45 0 -13 2 -3 4 22 4 25 0 35 -2 23
-4z m-483 -23 c0 -5 -4 -10 -10 -10 -5 0 -10 5 -10 10 0 6 5 10 10 10 6 0 10
-4 10 -10z m143 -17 c-13 -2 -33 -2 -45 0 -13 2 -3 4 22 4 25 0 35 -2 23 -4z
m356 -2 c12 -8 9 -11 -12 -17 -16 -3 -31 -4 -34 0 -4 3 5 7 18 7 21 1 21 2 -6
9 -28 7 -28 8 -5 9 14 0 32 -3 39 -8z m-346 -18 c-7 -2 -19 -2 -25 0 -7 3 -2
5 12 5 14 0 19 -2 13 -5z m-163 -13 c0 -5 -15 -11 -32 -11 l-33 -1 30 -8 c24
-6 18 -7 -24 -6 -47 1 -51 2 -28 10 15 6 27 13 27 18 0 4 14 8 30 8 17 0 30
-4 30 -10z m770 0 c0 -5 -20 -10 -45 -10 -25 0 -45 5 -45 10 0 6 20 10 45 10
25 0 45 -4 45 -10z m52 -7 c-6 -3 -10 -8 -7 -13 3 -4 -4 -6 -16 -3 -20 5 -20
6 3 18 13 6 25 10 28 7 3 -3 -1 -7 -8 -9z m-755 -9 c-3 -3 -12 -4 -19 -1 -8 3
-5 6 6 6 11 1 17 -2 13 -5z m185 -13 c4 -3 -16 -6 -44 -7 -31 -1 -53 -6 -59
-15 -6 -10 -9 -10 -9 -1 0 6 -9 12 -20 12 -11 0 -20 -4 -20 -10 0 -5 -4 -10
-10 -10 -23 0 -7 21 20 27 17 3 33 10 36 15 6 9 94 1 106 -11z m235 13 c-3 -3
-12 -4 -19 -1 -8 3 -5 6 6 6 11 1 17 -2 13 -5z m-382 -131 c9 -18 20 -33 26
-33 6 0 7 6 3 13 -4 7 -3 9 2 4 5 -5 10 -13 10 -18 1 -5 2 -13 3 -19 0 -5 15
-25 31 -44 l30 -34 -33 -21 c-61 -37 -105 -22 -155 54 -12 19 -13 19 -8 -2 6
-31 -1 -29 -19 7 -20 39 -20 153 0 174 8 8 15 21 15 28 1 18 76 -69 95 -109z
m388 110 c-7 -2 -19 -2 -25 0 -7 3 -2 5 12 5 14 0 19 -2 13 -5z m220 0 c-7 -2
-19 -2 -25 0 -7 3 -2 5 12 5 14 0 19 -2 13 -5z m-783 -13 c0 -5 -13 -10 -30
-10 -16 0 -30 5 -30 10 0 6 14 10 30 10 17 0 30 -4 30 -10z m40 0 c0 -5 -4
-10 -10 -10 -5 0 -10 5 -10 10 0 6 5 10 10 10 6 0 10 -4 10 -10z m298 -17
c-16 -2 -40 -2 -55 0 -16 2 -3 4 27 4 30 0 43 -2 28 -4z m527 -2 c-38 -5 -44
-8 -25 -12 14 -3 1 -5 -27 -5 -29 1 -53 2 -53 3 0 8 72 21 110 21 l45 -1 -50
-6z m-907 -8 c-10 -2 -26 -2 -35 0 -10 3 -2 5 17 5 19 0 27 -2 18 -5z m270 0
c-10 -2 -26 -2 -35 0 -10 3 -2 5 17 5 19 0 27 -2 18 -5z m305 -10 c-7 -2 -19
-2 -25 0 -7 3 -2 5 12 5 14 0 19 -2 13 -5z m-593 -13 c0 -5 -9 -10 -20 -10
-11 0 -20 5 -20 10 0 6 9 10 20 10 11 0 20 -4 20 -10z m430 1 c0 -11 -108 -27
-117 -17 -4 3 10 6 30 6 21 0 37 5 37 10 0 6 11 10 25 10 14 0 25 -4 25 -9z
m-387 -18 c-7 -2 -19 -2 -25 0 -7 3 -2 5 12 5 14 0 19 -2 13 -5z m-20 -20
c-18 -2 -48 -2 -65 0 -18 2 -4 4 32 4 36 0 50 -2 33 -4z m395 0 c-10 -2 -26
-2 -35 0 -10 3 -2 5 17 5 19 0 27 -2 18 -5z m55 0 c-7 -2 -19 -2 -25 0 -7 3
-2 5 12 5 14 0 19 -2 13 -5z m480 0 c-24 -2 -62 -2 -85 0 -24 2 -5 4 42 4 47
0 66 -2 43 -4z m-873 -13 c0 -5 -4 -10 -10 -10 -5 0 -10 5 -10 10 0 6 5 10 10
10 6 0 10 -4 10 -10z m470 0 c0 -5 -7 -10 -15 -10 -8 0 -15 5 -15 10 0 6 7 10
15 10 8 0 15 -4 15 -10z m-533 -17 c-20 -2 -52 -2 -70 0 -17 2 0 4 38 4 39 0
53 -2 32 -4z m379 -2 c-3 -5 -24 -11 -46 -13 -48 -4 -39 9 10 15 19 2 36 5 38
5 2 1 1 -2 -2 -7z m564 -1 l-35 -7 40 -3 c27 -2 33 -4 16 -7 -12 -3 -35 -2
-49 2 -20 5 -23 8 -11 16 7 5 28 8 44 8 30 -2 30 -2 -5 -9z m-477 -7 c-7 -2
-21 -2 -30 0 -10 3 -4 5 12 5 17 0 24 -2 18 -5z m-410 -10 c-7 -2 -21 -2 -30
0 -10 3 -4 5 12 5 17 0 24 -2 18 -5z m-83 -13 c0 -5 19 -10 42 -10 54 0 46 -6
-16 -13 -30 -3 -43 -1 -35 4 11 7 10 9 -3 9 -10 0 -18 5 -18 10 0 6 7 10 15
10 8 0 15 -4 15 -10z m460 0 c0 -5 -18 -10 -40 -10 -22 0 -40 5 -40 10 0 6 18
10 40 10 22 0 40 -4 40 -10z m-500 -14 c0 -2 -7 -7 -16 -10 -8 -3 -12 -2 -9 4
6 10 25 14 25 6z m537 -2 c-3 -3 -12 -4 -19 -1 -8 3 -5 6 6 6 11 1 17 -2 13
-5z m1059 -3 c-3 -5 -19 -11 -36 -13 -36 -5 -27 8 10 15 14 2 26 5 28 6 2 0 1
-3 -2 -8z m-1160 -19 c-21 -2 -42 0 -47 5 -4 4 13 6 39 3 l47 -5 -39 -3z m186
2 c4 -3 8 -11 7 -17 0 -9 -2 -9 -6 1 -6 14 -30 16 -35 2 -2 -6 -9 -1 -15 9
-11 18 -10 19 14 15 15 -3 30 -7 35 -10z m325 10 c-3 -3 -12 -4 -19 -1 -8 3
-5 6 6 6 11 1 17 -2 13 -5z m101 -1 c-16 -2 -40 -2 -55 0 -16 2 -3 4 27 4 30
0 43 -2 28 -4z m-510 -10 c-10 -2 -28 -2 -40 0 -13 2 -5 4 17 4 22 1 32 -1 23
-4z m-448 -13 c0 -6 -27 -10 -60 -10 -33 0 -60 4 -60 10 0 6 27 10 60 10 33 0
60 -4 60 -10z m355 -28 c-3 -3 -11 0 -18 7 -9 10 -8 11 6 5 10 -3 15 -9 12
-12z m94 9 c12 -8 9 -11 -12 -16 -14 -4 -32 -5 -39 -2 -7 3 1 6 17 7 l30 2
-30 8 c-28 7 -28 8 -5 9 14 0 32 -3 39 -8z m491 -1 l-45 -7 50 -3 c49 -3 49
-4 10 -7 -22 -2 -55 2 -73 10 -32 13 -31 13 35 14 62 0 64 -1 23 -7z m110 -5
c0 -2 -6 -5 -13 -8 -8 -3 -14 1 -14 8 0 7 6 11 14 8 7 -3 13 -6 13 -8z m-1000
-5 c-8 -5 -19 -10 -25 -10 -5 0 -3 5 5 10 8 5 20 10 25 10 6 0 3 -5 -5 -10z
m44 2 c3 -5 -1 -9 -9 -9 -8 0 -12 4 -9 9 3 4 7 8 9 8 2 0 6 -4 9 -8z m459 1
c-7 -2 -19 -2 -25 0 -7 3 -2 5 12 5 14 0 19 -2 13 -5z m774 -9 c-3 -3 -12 -4
-19 -1 -8 3 -5 6 6 6 11 1 17 -2 13 -5z m-957 -14 c0 -5 -7 -10 -15 -10 -8 0
-15 5 -15 10 0 6 7 10 15 10 8 0 15 -4 15 -10z m180 1 c0 -5 8 -11 18 -13 9
-3 -6 -4 -34 -4 -37 1 -50 5 -47 14 6 14 63 17 63 3z m145 -21 c18 -8 17 -9
-7 -9 -15 -1 -30 4 -33 9 -7 12 12 12 40 0z m698 3 c-13 -2 -35 -2 -50 0 -16
2 -5 4 22 4 28 0 40 -2 28 -4z m-98 -13 c-11 -5 -38 -8 -60 -8 l-40 1 45 7
c64 10 78 10 55 0z m-1197 -7 c-57 -4 -83 -23 -31 -23 14 0 24 -2 21 -5 -8 -8
-128 7 -128 16 0 9 59 16 140 15 l55 0 -57 -3z m400 0 c-10 -2 -28 -2 -40 0
-13 2 -5 4 17 4 22 1 32 -1 23 -4z m-178 -13 c0 -5 -9 -10 -20 -10 -11 0 -20
5 -20 10 0 6 9 10 20 10 11 0 20 -4 20 -10z m290 0 c0 -5 -20 -10 -45 -10 -25
0 -45 5 -45 10 0 6 20 10 45 10 25 0 45 -4 45 -10z m-389 -18 c-18 -2 -37 0
-42 5 -5 5 11 6 34 3 41 -4 41 -5 8 -8z m472 1 c-13 -2 -33 -2 -45 0 -13 2 -3
4 22 4 25 0 35 -2 23 -4z m62 -3 c-3 -5 -14 -10 -23 -9 -14 0 -13 2 3 9 27 11
27 11 20 0z m-458 -6 c-3 -3 -12 -4 -19 -1 -8 3 -5 6 6 6 11 1 17 -2 13 -5z
m308 -4 c30 -6 21 -7 -35 -3 -41 3 -77 7 -79 9 -8 7 74 3 114 -6z m591 -8
c-27 -2 -52 0 -57 5 -4 4 18 6 49 3 l57 -5 -49 -3z m-1148 1 c-10 -2 -26 -2
-35 0 -10 3 -2 5 17 5 19 0 27 -2 18 -5z m188 -11 c1 -7 0 -8 -3 -2 -6 13 -33
13 -33 0 0 -14 -23 -12 -53 3 -24 12 -22 13 31 12 36 0 56 -5 58 -13z m539 -2
c3 -5 -1 -10 -10 -10 -9 0 -13 5 -10 10 3 6 8 10 10 10 2 0 7 -4 10 -10z m422
-26 c-3 -3 -12 -4 -19 -1 -8 3 -5 6 6 6 11 1 17 -2 13 -5z"/>
<path d="M8096 6161 c-3 -4 6 -6 19 -3 14 2 25 6 25 8 0 8 -39 4 -44 -5z"/>
<path d="M7960 6074 c0 -34 4 -53 10 -49 6 3 10 28 10 56 0 27 -4 49 -10 49
-5 0 -10 -25 -10 -56z"/>
<path d="M7051 6633 c-1 -18 -8 -22 -50 -25 -27 -1 -47 1 -44 5 4 6 -42 5 -65
-2 -2 -1 10 -13 25 -27 l28 -25 -30 4 c-28 5 -28 4 -10 -9 11 -8 25 -12 32
-10 7 3 13 2 13 -2 0 -4 14 -8 31 -9 17 -1 37 -7 44 -13 6 -5 14 -8 16 -5 3 2
6 -6 6 -18 2 -17 0 -19 -8 -7 -7 11 -8 9 -5 -10 3 -14 7 -105 10 -202 3 -98 9
-227 12 -286 l7 -108 -53 -12 c-29 -7 -55 -10 -58 -8 -2 3 -11 -2 -20 -10 -13
-14 -13 -17 -1 -25 11 -7 10 -9 -5 -9 -17 0 -17 -2 -4 -21 13 -20 22 -22 103
-20 49 1 95 7 102 12 7 6 53 9 112 7 55 -2 98 -1 96 2 -2 4 17 7 43 7 26 0 41
-2 35 -4 -18 -6 -16 -23 2 -23 12 0 35 28 35 44 0 16 -55 38 -99 40 -28 1 -53
5 -56 8 -4 3 -8 60 -10 126 l-4 120 64 7 c36 3 67 10 70 15 2 4 30 11 60 15
56 7 152 51 193 88 l22 20 0 -33 c0 -57 7 -29 14 54 3 43 9 82 12 85 4 3 4 -9
2 -27 -3 -21 -1 -31 6 -29 14 5 10 107 -4 121 -5 5 -10 22 -10 36 0 26 -26 60
-46 60 -5 0 -15 9 -22 20 -7 11 -18 20 -25 20 -6 0 -25 7 -42 16 -20 10 -72
17 -162 21 -102 5 -133 9 -133 20 0 20 -17 16 -23 -6 -3 -14 -13 -18 -43 -17
-22 1 -65 3 -96 4 -50 2 -57 5 -61 25 -4 21 -4 21 -6 0z m-43 -70 c-10 -2 -28
-2 -40 0 -13 2 -5 4 17 4 22 1 32 -1 23 -4z m49 -13 c1 -16 -1 -17 -12 -7 -11
10 -8 19 10 27 1 0 1 -9 2 -20z m116 13 c-18 -2 -48 -2 -65 0 -18 2 -4 4 32 4
36 0 50 -2 33 -4z m380 0 c-24 -2 -62 -2 -85 0 -24 2 -5 4 42 4 47 0 66 -2 43
-4z m-373 -23 c0 -5 -18 -10 -41 -10 -24 0 -38 -4 -34 -10 3 -5 0 -7 -9 -4
-12 5 -13 9 -3 20 14 15 87 19 87 4z m220 -2 c0 -5 5 -8 12 -8 18 0 58 -42 58
-61 0 -10 5 -21 10 -24 16 -10 12 -93 -6 -120 -9 -14 -14 -32 -10 -40 3 -9 2
-14 -3 -11 -5 3 -14 -1 -21 -9 -7 -8 -17 -15 -23 -15 -5 0 -15 -7 -21 -15 -6
-9 -33 -18 -61 -21 l-50 -6 -3 133 c-1 74 0 151 4 172 l6 38 54 -3 c30 -2 54
-6 54 -10z m220 2 c0 -5 -22 -10 -50 -10 -27 0 -50 5 -50 10 0 6 23 10 50 10
28 0 50 -4 50 -10z m-27 -27 c-7 -2 -19 -2 -25 0 -7 3 -2 5 12 5 14 0 19 -2
13 -5z m-426 -9 c-3 -3 -12 -4 -19 -1 -8 3 -5 6 6 6 11 1 17 -2 13 -5z m76 -1
c-7 -2 -21 -2 -30 0 -10 3 -4 5 12 5 17 0 24 -2 18 -5z m414 1 c-3 -3 -12 -4
-19 -1 -8 3 -5 6 6 6 11 1 17 -2 13 -5z m-539 -16 c-6 -17 -38 -19 -38 -2 0 8
9 14 21 14 11 0 19 -5 17 -12z m462 2 c0 -5 -22 -10 -50 -10 -27 0 -50 5 -50
10 0 6 23 10 50 10 28 0 50 -4 50 -10z m-355 -20 c-16 -4 -46 -8 -65 -7 l-35
0 40 7 c22 4 51 7 65 7 22 1 22 0 -5 -7z m386 -9 c-11 -7 -11 -9 0 -14 19 -8
-9 -27 -36 -25 -17 1 -17 1 3 5 39 8 23 24 -20 21 -29 -2 -42 -7 -40 -16 1 -8
-2 -11 -8 -7 -5 3 -10 12 -10 20 0 10 16 15 53 18 28 2 57 4 62 5 6 1 4 -2 -4
-7z m-554 -23 c-3 -8 -6 -5 -6 6 -1 11 2 17 5 13 3 -3 4 -12 1 -19z m642 6 c2
-2 1 -7 -2 -10 -4 -4 -21 1 -39 10 l-33 17 35 -7 c19 -3 37 -8 39 -10z m-539
-4 c0 -5 -18 -10 -40 -10 -22 0 -40 5 -40 10 0 6 18 10 40 10 22 0 40 -4 40
-10z m529 -27 c3 -2 5 -12 6 -22 1 -13 -4 -17 -18 -13 -13 3 -18 1 -14 -6 14
-22 -5 -42 -39 -42 -19 0 -34 5 -34 10 0 6 16 10 35 10 19 0 35 5 35 10 0 7
-25 9 -67 6 l-68 -5 64 10 c35 5 72 16 83 23 18 13 10 14 -59 11 -43 -1 -51 0
-18 2 43 3 55 7 45 14 -11 7 -6 8 15 3 17 -4 32 -9 34 -11z m-632 -70 c-2 -16
-4 -3 -4 27 0 30 2 43 4 28 2 -16 2 -40 0 -55z m173 71 c-58 -8 -148 -8 -143
-1 2 4 41 6 86 6 45 -1 71 -3 57 -5z m284 -50 c3 -8 2 -12 -4 -9 -6 3 -10 10
-10 16 0 14 7 11 14 -7z m-326 -1 c-21 -2 -55 -2 -75 0 -21 2 -4 4 37 4 41 0
58 -2 38 -4z m72 -23 c0 -5 -20 -10 -45 -10 -25 0 -45 5 -45 10 0 6 20 10 45
10 25 0 45 -4 45 -10z m290 0 c0 -5 -4 -10 -10 -10 -5 0 -10 5 -10 10 0 6 5
10 10 10 6 0 10 -4 10 -10z m-422 -27 c-10 -2 -26 -2 -35 0 -10 3 -2 5 17 5
19 0 27 -2 18 -5z m525 0 c-13 -2 -35 -2 -50 0 -16 2 -5 4 22 4 28 0 40 -2 28
-4z m-596 -35 c-3 -7 -5 -2 -5 12 0 14 2 19 5 13 2 -7 2 -19 0 -25z m202 7
c-2 -1 -43 -5 -90 -6 -67 -3 -83 -1 -73 8 13 14 157 22 163 10 1 -5 1 -10 0
-12z m294 18 c-13 -2 -33 -2 -45 0 -13 2 -3 4 22 4 25 0 35 -2 23 -4z m107
-12 c0 -12 -93 -24 -140 -18 -23 2 -13 4 27 5 34 1 65 7 68 12 8 13 45 13 45
1z m-429 -39 c-18 -2 -37 0 -42 5 -5 5 11 6 34 3 41 -4 41 -5 8 -8z m-174 -29
c-3 -10 -5 -4 -5 12 0 17 2 24 5 18 2 -7 2 -21 0 -30z m96 30 c-13 -2 -35 -2
-50 0 -16 2 -5 4 22 4 28 0 40 -2 28 -4z m411 -2 c4 -5 -3 -7 -14 -4 -23 6
-26 13 -6 13 8 0 17 -4 20 -9z m-44 -10 c0 -5 -20 -11 -44 -12 -32 -3 -42 -1
-39 9 6 14 83 17 83 3z m-260 -18 c0 -5 -28 -7 -62 -5 -107 5 -117 9 -25 11
48 0 87 -2 87 -6z m308 -10 c-16 -2 -40 -2 -55 0 -16 2 -3 4 27 4 30 0 43 -2
28 -4z m-331 -9 c-3 -3 -12 -4 -19 -1 -8 3 -5 6 6 6 11 1 17 -2 13 -5z m-84
-31 c-13 -2 -33 -2 -45 0 -13 2 -3 4 22 4 25 0 35 -2 23 -4z m106 3 c-2 -2
-22 -6 -44 -9 -27 -4 -35 -3 -25 3 14 9 79 15 69 6z m141 -16 c-30 -4 -63 -4
-74 0 -10 3 15 7 55 7 73 0 73 0 19 -7z m-267 -7 c-7 -2 -21 -2 -30 0 -10 3
-4 5 12 5 17 0 24 -2 18 -5z m107 -29 c-35 -7 -98 -9 -94 -2 3 5 29 7 57 7 29
-1 45 -3 37 -5z m-30 -24 c8 -5 11 -13 6 -17 -5 -4 -11 -2 -13 5 -5 14 -43 16
-43 2 0 -5 -16 -10 -35 -10 -47 0 -45 18 3 23 20 2 44 4 52 5 8 1 22 -2 30 -8z
m3 -37 c-24 -2 -62 -2 -85 0 -24 2 -5 4 42 4 47 0 66 -2 43 -4z m37 -23 c0 -5
-16 -10 -35 -10 -19 0 -35 5 -35 10 0 6 16 10 35 10 19 0 35 -4 35 -10z m-97
-17 c-13 -2 -33 -2 -45 0 -13 2 -3 4 22 4 25 0 35 -2 23 -4z m52 -13 c3 -6 -1
-7 -9 -4 -18 7 -21 14 -7 14 6 0 13 -4 16 -10z m-75 -20 c0 -5 -9 -10 -20 -10
-11 0 -20 5 -20 10 0 6 9 10 20 10 11 0 20 -4 20 -10z m27 -26 c-3 -3 -12 -4
-19 -1 -8 3 -5 6 6 6 11 1 17 -2 13 -5z m86 -1 c-7 -2 -19 -2 -25 0 -7 3 -2 5
12 5 14 0 19 -2 13 -5z m-126 -39 c-3 -3 -12 -4 -19 -1 -8 3 -5 6 6 6 11 1 17
-2 13 -5z m85 -1 c-31 -3 -50 -8 -46 -14 3 -5 24 -8 47 -6 23 2 33 2 22 0 -11
-3 -23 -10 -27 -17 -6 -8 -13 -8 -28 2 -12 7 -20 8 -20 2 0 -15 -47 -12 -53 3
-4 10 4 12 27 10 17 -2 25 0 17 3 -25 12 11 24 64 22 l50 -2 -53 -3z m11 -60
c-23 -2 -64 -2 -90 0 -26 2 -7 3 42 3 50 0 71 -1 48 -3z m-193 -24 c0 -14 -27
-10 -33 5 -4 10 0 12 14 9 10 -3 19 -9 19 -14z m289 -2 c-8 -13 -14 -16 -21
-9 -13 13 -4 29 16 29 12 0 13 -5 5 -20z m-159 3 c0 -6 9 -5 21 2 17 10 23 10
26 1 6 -16 49 -17 56 -3 3 6 4 5 3 -2 -2 -9 -20 -12 -57 -11 -30 1 -69 2 -86
2 -45 1 -42 21 2 21 19 0 35 -5 35 -10z m270 -11 c0 -5 -4 -9 -10 -9 -5 0 -10
7 -10 16 0 8 5 12 10 9 6 -3 10 -10 10 -16z m-363 -25 c-3 -3 -12 -4 -19 -1
-8 3 -5 6 6 6 11 1 17 -2 13 -5z m56 -1 c-7 -2 -19 -2 -25 0 -7 3 -2 5 12 5
14 0 19 -2 13 -5z"/>
<path d="M8440 5941 c0 -5 11 -11 25 -13 20 -4 23 -3 14 8 -13 16 -39 19 -39
5z"/>
<path d="M6376 5878 c-27 -42 -48 -112 -56 -192 -10 -90 -2 -117 54 -195 18
-25 53 -82 77 -126 l44 -80 3 -170 c3 -155 2 -175 -18 -225 -12 -30 -31 -103
-41 -163 -11 -59 -26 -125 -34 -147 -8 -22 -17 -68 -20 -102 -9 -89 -32 -145
-66 -162 -43 -21 -254 -182 -275 -209 -11 -14 -46 -56 -79 -95 -140 -165 -210
-283 -291 -492 l-37 -95 -4 -225 c-5 -249 7 -366 52 -513 69 -227 300 -460
515 -521 104 -29 273 -18 370 25 25 11 83 25 130 30 109 12 179 27 260 57 82
30 143 43 153 33 4 -5 12 -39 18 -77 5 -38 22 -121 38 -184 16 -63 32 -131 35
-151 4 -21 16 -49 27 -64 12 -14 20 -28 18 -30 -2 -2 -47 5 -99 16 -52 11
-140 24 -195 29 -196 17 -241 44 -317 197 -40 80 -68 114 -68 81 0 -27 106
-221 130 -240 48 -35 142 -60 258 -69 62 -5 117 -11 122 -14 5 -3 55 -14 110
-24 78 -14 108 -24 128 -43 30 -28 135 -98 146 -98 4 0 26 -13 49 -29 23 -15
53 -32 67 -36 14 -4 45 -18 70 -31 25 -13 52 -24 60 -24 9 0 24 -6 35 -13 45
-31 114 -40 253 -35 149 6 186 16 279 75 29 18 55 33 58 33 10 0 167 135 217
186 49 52 84 115 141 254 80 192 89 217 101 267 7 29 21 64 30 78 16 25 58
216 70 325 4 30 20 82 36 116 28 58 42 108 55 185 3 20 19 56 35 80 16 24 30
49 30 56 0 6 20 35 45 64 l45 53 0 88 c0 55 -6 102 -14 123 l-15 35 43 19 c43
18 43 20 48 75 3 35 12 63 23 76 10 11 15 23 12 26 -6 6 9 27 88 129 112 144
121 163 173 335 52 175 86 344 90 448 3 69 0 90 -18 128 -13 25 -34 51 -51 59
-27 14 -36 13 -137 -20 -60 -19 -124 -46 -143 -59 -19 -14 -68 -45 -109 -71
-41 -25 -102 -66 -135 -90 -33 -24 -89 -64 -125 -89 -36 -25 -108 -79 -160
-121 -92 -73 -188 -127 -280 -160 -24 -9 -54 -22 -66 -30 -12 -8 -44 -15 -71
-16 -54 -3 -78 9 -240 117 -51 34 -107 67 -125 74 -18 7 -79 35 -136 62 -57
27 -151 66 -210 86 -98 33 -117 36 -217 36 -60 1 -135 -2 -165 -6 l-55 -7 -27
42 c-15 23 -58 77 -97 121 -39 43 -71 82 -71 87 0 4 -11 18 -24 31 -24 23
-129 223 -167 320 -10 27 -25 59 -33 71 -8 12 -17 33 -21 47 -4 14 -15 36 -25
50 -9 14 -23 41 -30 60 -11 28 -78 129 -100 150 -3 3 -18 25 -34 49 -16 25
-41 55 -57 68 -38 32 -49 77 -49 200 0 106 -9 129 -34 91z m4 -137 c0 -21 4
-63 10 -92 8 -43 17 -61 48 -89 21 -19 47 -48 58 -65 10 -16 37 -55 60 -85 23
-30 69 -111 102 -180 217 -454 231 -478 384 -651 31 -36 61 -77 67 -91 l10
-26 173 5 173 5 109 -36 c60 -20 150 -56 200 -80 50 -25 114 -54 141 -66 70
-29 164 -92 171 -112 3 -10 11 -18 18 -18 8 0 47 -20 89 -45 61 -37 92 -66
166 -155 50 -60 102 -117 114 -127 13 -10 47 -54 76 -98 29 -44 61 -89 71
-100 23 -26 126 -218 166 -310 11 -27 20 -84 25 -175 4 -74 15 -164 24 -200
25 -99 29 -258 11 -365 -26 -148 -32 -171 -54 -213 -11 -22 -24 -58 -28 -79
-3 -21 -17 -60 -29 -88 -13 -27 -28 -68 -35 -90 -7 -22 -16 -45 -21 -51 -5 -6
-20 -40 -33 -76 -14 -35 -35 -84 -47 -109 -30 -58 -166 -191 -260 -253 -41
-27 -87 -58 -102 -68 -51 -35 -106 -47 -238 -54 -131 -7 -165 -3 -246 32 -17
8 -34 14 -38 14 -7 0 -153 71 -230 113 -76 40 -170 114 -206 160 -35 47 -66
146 -89 289 -13 73 -29 156 -42 203 -18 70 -11 105 40 188 37 62 59 87 105
118 52 35 65 39 120 39 79 0 64 -18 -23 -28 -36 -4 -65 -12 -68 -19 -2 -8 5
-13 17 -13 11 0 30 -4 43 -9 13 -5 68 -14 123 -20 120 -14 183 -31 178 -48 -3
-7 3 -13 12 -13 12 0 15 5 11 16 -5 14 -1 16 26 10 61 -12 224 -132 380 -279
102 -96 208 -173 221 -160 13 12 7 22 -30 44 -46 28 -82 58 -197 166 -152 143
-325 263 -380 263 -16 0 -81 10 -145 22 l-116 22 60 12 c160 34 389 -6 415
-72 6 -16 15 -20 32 -17 16 3 51 -14 114 -54 50 -33 110 -65 133 -71 22 -7 45
-21 51 -32 6 -11 16 -17 24 -14 8 3 51 -14 97 -37 46 -23 101 -50 122 -61 20
-10 69 -39 108 -64 39 -25 73 -43 77 -39 10 10 -13 39 -44 54 -16 7 -38 22
-49 31 -11 10 -126 71 -255 135 -129 64 -260 131 -290 149 -30 18 -80 48 -110
65 l-55 32 85 -6 c47 -3 152 -10 235 -15 166 -10 147 -4 375 -129 104 -57 150
-72 150 -50 0 8 -49 38 -108 67 -59 28 -134 68 -166 87 -70 42 -111 49 -391
65 -104 6 -224 16 -265 21 -41 6 -157 13 -258 16 -160 5 -182 8 -180 22 3 12
22 18 83 24 88 10 102 17 122 65 21 50 -3 97 -61 122 -87 37 -385 110 -449
110 -10 0 -27 -16 -38 -35 l-21 -34 -36 25 c-63 43 -222 116 -291 134 -36 10
-88 27 -116 38 -27 11 -77 26 -110 32 -33 6 -88 18 -122 26 -34 8 -106 19
-160 25 -54 6 -147 19 -208 29 -60 11 -123 20 -139 22 -35 4 -48 -19 -14 -26
153 -30 257 -46 322 -51 43 -3 119 -14 170 -25 50 -11 125 -27 166 -36 41 -9
91 -25 111 -35 19 -9 64 -25 100 -34 35 -9 88 -28 117 -41 29 -13 55 -24 59
-24 13 0 140 -90 167 -119 17 -17 40 -31 52 -31 13 0 37 -13 54 -29 29 -26 32
-32 25 -70 -5 -32 -2 -51 17 -90 12 -28 29 -50 36 -51 17 0 15 25 -6 68 -13
25 -17 51 -14 80 3 28 -1 50 -12 67 -9 13 -16 31 -16 39 0 21 -46 50 -79 51
-19 0 -27 6 -29 21 -5 38 19 46 89 30 35 -8 92 -19 127 -25 34 -7 105 -26 158
-43 127 -41 157 -70 87 -83 -52 -9 -90 -31 -98 -55 -3 -11 -15 -20 -25 -20
-11 0 -31 -16 -46 -35 -14 -19 -33 -35 -40 -35 -8 0 -14 -8 -15 -17 0 -10 -18
-31 -41 -48 -51 -38 -138 -178 -145 -234 -5 -38 -8 -41 -37 -41 -17 0 -47 -10
-66 -22 -44 -27 -149 -55 -259 -69 -47 -6 -129 -24 -181 -41 -124 -40 -270
-49 -351 -23 -95 31 -194 92 -271 168 -153 151 -207 246 -250 437 -21 95 -23
130 -23 355 l0 250 29 80 c33 94 121 281 136 290 6 4 16 21 24 39 7 17 20 38
28 46 7 8 29 37 47 63 75 110 298 309 415 370 40 21 66 82 66 154 0 23 9 69
19 100 11 32 22 78 26 103 10 70 26 137 56 238 32 103 37 186 18 332 -11 89
-41 155 -136 300 -39 60 -43 70 -43 131 0 76 9 129 21 129 5 0 9 -17 9 -39z
m3154 -1014 c29 -39 32 -129 7 -257 -43 -223 -53 -265 -67 -291 -8 -16 -19
-52 -25 -81 -14 -67 -44 -125 -106 -207 -88 -117 -116 -159 -158 -234 -9 -16
-17 -46 -18 -68 -2 -59 -38 -71 -124 -44 -17 6 -23 3 -23 -9 0 -8 -11 -18 -24
-22 -23 -5 -153 -1 -188 7 -32 7 -21 -16 15 -34 33 -17 47 -18 125 -9 48 5 93
11 100 13 8 2 23 -8 35 -24 17 -22 22 -45 25 -120 l4 -92 -39 -45 c-65 -75
-112 -169 -127 -258 -8 -44 -22 -92 -32 -108 l-19 -28 -6 55 c-3 30 -11 65
-18 77 -7 13 -17 83 -22 155 -5 73 -11 147 -13 165 -7 50 -160 346 -220 426
-29 39 -60 85 -69 101 -8 17 -34 48 -57 70 -23 22 -72 76 -108 120 -37 44 -72
84 -80 88 -16 11 -6 27 18 27 19 0 134 47 248 102 35 16 108 66 163 109 54 43
129 100 166 126 38 25 86 59 108 75 22 16 78 54 125 85 47 31 102 67 123 81
50 34 184 80 226 78 25 -1 40 -9 55 -29z m-1990 -1932 c-4 -8 -10 -15 -15 -15
-5 0 -9 7 -9 15 0 8 7 15 15 15 9 0 12 -6 9 -15z"/>
<path d="M6545 3808 c20 -65 19 -66 -20 -74 -21 -4 -66 -4 -102 -1 -75 7 -84
-10 -14 -30 38 -11 113 -6 161 11 11 3 24 -13 44 -55 16 -33 40 -71 53 -84
l24 -24 -22 -11 c-12 -7 -55 -13 -95 -13 -50 -2 -74 -6 -74 -14 0 -20 67 -26
128 -13 100 22 105 22 137 -4 16 -14 27 -28 23 -31 -3 -3 -33 -11 -67 -17 -35
-7 -60 -16 -58 -22 5 -14 96 -9 145 8 30 11 43 10 75 -2 34 -14 38 -19 33 -42
-7 -36 3 -70 20 -70 10 0 14 13 14 44 l0 43 113 6 c123 6 147 12 147 34 0 11
-6 14 -22 9 -13 -4 -70 -10 -128 -13 -104 -5 -134 0 -190 36 -8 5 -26 12 -40
15 -14 3 -54 30 -90 59 -58 47 -70 64 -120 165 -30 61 -61 112 -69 112 -9 0
-11 -7 -6 -22z"/>
<path d="M6472 3629 c6 -17 148 -26 148 -9 0 5 -17 10 -37 10 -21 0 -55 3 -77
7 -31 5 -38 3 -34 -8z"/>
<path d="M6846 3379 c-4 -23 -4 -44 -1 -47 10 -11 24 13 27 47 4 50 -18 50
-26 0z"/>
<path d="M7950 3324 c-56 -11 -119 -36 -134 -53 -16 -17 -15 -21 5 -57 85
-149 145 -218 210 -243 18 -7 55 -22 81 -32 91 -37 189 -54 308 -54 92 0 122
4 149 18 39 22 30 44 -12 28 -39 -15 -169 -25 -222 -16 -51 7 -50 14 5 35 35
13 100 67 100 82 0 16 -27 7 -50 -17 -37 -39 -113 -58 -180 -44 -53 10 -137
51 -152 73 -4 6 -8 62 -8 124 0 93 -3 112 -15 112 -22 0 -22 -226 1 -258 37
-53 -49 3 -93 61 -88 114 -115 163 -100 175 46 35 260 50 327 23 44 -18 164
-104 207 -148 18 -19 60 -69 94 -113 61 -79 72 -89 84 -70 9 15 -155 210 -226
267 -104 84 -151 104 -261 108 -51 2 -104 1 -118 -1z"/>
<path d="M6635 3200 c-4 -6 -3 -16 3 -22 6 -6 12 -6 17 2 4 6 3 16 -3 22 -6 6
-12 6 -17 -2z"/>
<path d="M8150 3175 c-7 -8 -10 -27 -7 -43 17 -86 50 -116 117 -106 35 6 44
12 55 37 17 41 10 54 -25 49 -24 -3 -37 3 -70 37 -45 45 -52 48 -70 26z"/>
<path d="M6195 3170 c-4 -6 -3 -16 3 -22 6 -6 12 -6 17 2 4 6 3 16 -3 22 -6 6
-12 6 -17 -2z"/>
<path d="M6385 3060 c-4 -6 -3 -16 3 -22 6 -6 12 -6 17 2 4 6 3 16 -3 22 -6 6
-12 6 -17 -2z"/>
<path d="M6647 2984 c-8 -8 1 -24 14 -24 5 0 9 7 9 15 0 15 -12 20 -23 9z"/>
<path d="M6180 2926 c0 -14 19 -16 153 -16 248 0 509 -39 645 -97 l37 -16 -30
-9 c-16 -5 -127 -13 -245 -18 -198 -7 -221 -10 -285 -35 -38 -15 -101 -33
-140 -40 -38 -7 -107 -21 -152 -31 -72 -16 -88 -17 -130 -5 -26 8 -63 16 -82
19 -55 8 -33 -18 34 -40 69 -23 162 -20 236 6 25 8 77 20 115 25 39 6 90 19
115 30 64 29 156 41 309 41 131 0 282 18 311 36 8 4 22 7 32 6 11 -2 17 3 17
16 0 16 -9 20 -54 25 -30 3 -68 13 -85 22 -47 24 -214 64 -316 76 -49 6 -179
13 -287 16 -178 5 -198 4 -198 -11z"/>
<path d="M6632 2819 c2 -6 8 -10 13 -10 5 0 11 4 13 10 2 6 -4 11 -13 11 -9 0
-15 -5 -13 -11z"/>
<path d="M6215 2810 c-4 -6 -3 -16 3 -22 6 -6 12 -6 17 2 4 6 3 16 -3 22 -6 6
-12 6 -17 -2z"/>
<path d="M7635 2810 c-4 -6 -3 -16 3 -22 6 -6 12 -6 17 2 4 6 3 16 -3 22 -6 6
-12 6 -17 -2z"/>
<path d="M6380 2786 c0 -9 7 -16 16 -16 17 0 14 22 -4 28 -7 2 -12 -3 -12 -12z"/>
<path d="M7850 2755 c0 -8 5 -15 10 -15 6 0 10 7 10 15 0 8 -4 15 -10 15 -5 0
-10 -7 -10 -15z"/>
<path d="M6722 2659 c2 -6 8 -10 13 -10 5 0 11 4 13 10 2 6 -4 11 -13 11 -9 0
-15 -5 -13 -11z"/>
<path d="M6505 2621 c-7 -12 12 -24 25 -16 11 7 4 25 -10 25 -5 0 -11 -4 -15
-9z"/>
<path d="M8397 2434 c-8 -8 1 -24 14 -24 5 0 9 7 9 15 0 15 -12 20 -23 9z"/>
<path d="M7897 2384 c-8 -8 1 -24 14 -24 5 0 9 7 9 15 0 15 -12 20 -23 9z"/>
<path d="M7826 2343 c-11 -11 -6 -23 9 -23 8 0 15 4 15 9 0 13 -16 22 -24 14z"/>
<path d="M7662 2319 c2 -6 8 -10 13 -10 5 0 11 4 13 10 2 6 -4 11 -13 11 -9 0
-15 -5 -13 -11z"/>
<path d="M8197 2293 c-12 -11 -8 -23 8 -23 8 0 15 7 15 15 0 16 -12 20 -23 8z"/>
<path d="M8040 2085 c0 -8 5 -15 10 -15 6 0 10 7 10 15 0 8 -4 15 -10 15 -5 0
-10 -7 -10 -15z"/>
<path d="M9203 4212 c-26 -33 -60 -75 -75 -95 -20 -25 -44 -40 -87 -55 -120
-41 -372 -225 -345 -252 9 -9 21 -2 50 30 22 23 57 50 78 62 21 11 66 40 100
64 54 39 131 73 142 61 2 -2 -9 -30 -26 -63 -19 -38 -30 -74 -30 -102 0 -57
-20 -102 -60 -136 -23 -19 -30 -30 -22 -38 8 -8 19 -4 40 13 44 35 69 86 75
154 3 45 15 79 44 133 33 61 49 78 94 105 59 35 102 101 97 146 -5 42 -25 34
-75 -27z m22 -42 c-10 -11 -20 -18 -23 -15 -7 6 18 35 31 35 5 0 2 -9 -8 -20z"/>
<path d="M7350 5790 c0 -5 6 -10 14 -10 8 0 18 5 21 10 3 6 -3 10 -14 10 -12
0 -21 -4 -21 -10z"/>
<path d="M6660 2170 c0 -5 11 -17 24 -25 13 -9 47 -49 75 -90 66 -95 101 -110
246 -109 109 0 190 23 167 46 -9 9 -18 9 -38 0 -41 -19 -163 -26 -225 -13 -57
12 -85 33 -123 94 -31 51 -88 107 -107 107 -11 0 -19 -4 -19 -10z"/>
<path d="M8320 1485 c0 -9 8 -27 17 -41 110 -169 163 -333 193 -604 12 -108
-48 -337 -128 -492 -71 -135 -87 -161 -115 -190 -25 -24 -26 -29 -12 -34 31
-12 66 37 164 232 28 56 51 106 51 111 0 6 14 53 31 104 41 123 49 249 25 393
-22 127 -42 208 -65 260 -10 23 -22 56 -26 73 -3 18 -11 35 -16 39 -5 3 -21
29 -35 57 -45 88 -84 131 -84 92z"/>
</g>
</svg>
